<?xml version="1.0" encoding="utf-8"?>
<!-- Generator: Adobe Illustrator 16.0.0, SVG Export Plug-In . SVG Version: 6.00 Build 0)  -->
<!DOCTYPE svg PUBLIC "-//W3C//DTD SVG 1.1//EN" "http://www.w3.org/Graphics/SVG/1.1/DTD/svg11.dtd">
<svg version="1.1" id="Layer_1" xmlns="http://www.w3.org/2000/svg" xmlns:xlink="http://www.w3.org/1999/xlink" x="0px" y="0px"
	 width="24px" height="24px" viewBox="0 0 24 24" enable-background="new 0 0 24 24" xml:space="preserve">
<g>
	<g>
		<g>
			<path d="M11.8,23.5c-0.6,0-1.2,0-1.7-0.1c-1.3-0.2-2.5-0.5-3.5-1.1c-1.1-0.6-2-1.4-2.5-2.4c-0.6-1.1-0.9-2.5-0.8-3.9
				c0.1-1.3,0.5-2.6,1.1-4c0.5-1,1.1-2,1.8-3C6.8,8.1,7.4,7.3,8,6.7c0,0,0.1-0.1,0.1-0.1c0.2-0.1,0.4-0.1,0.5,0
				C8.8,6.6,8.9,6.8,8.9,7c0,0.6,0.1,1.1,0.2,1.6C9.2,9,9.4,9.4,9.7,9.7c0.8-0.6,1.3-1.2,1.8-1.8c0.6-0.8,1-1.8,1.1-2.8
				c0.2-1.3,0-2.7-0.5-3.9c-0.1-0.2,0-0.4,0.2-0.6c0.2-0.1,0.4-0.1,0.6,0c0.1,0.1,0.2,0.2,0.4,0.3c0.1,0.1,0.1,0.1,0.2,0.2
				c1.9,1.8,3.3,3.5,4.5,5.4c1.3,2.1,2.2,4.2,2.6,6.3c0.2,1.3,0.3,2.6,0.2,3.8c-0.1,0.6-0.2,1.2-0.3,1.6c-0.3,0.8-0.6,1.5-1,2.1
				C19,21,18.5,21.5,18,21.9c-0.6,0.4-1.3,0.8-2,1c-0.8,0.2-1.6,0.4-2.7,0.5C12.8,23.5,12.3,23.5,11.8,23.5z M8,8.2
				C7.7,8.6,7.3,9.1,7,9.5c-0.7,1-1.2,1.9-1.7,2.9c-0.6,1.3-0.9,2.5-1,3.6c-0.1,1.3,0.1,2.4,0.7,3.4c0.5,0.8,1.2,1.5,2.1,2
				c0.9,0.5,2,0.8,3.2,1c0.9,0.1,1.9,0.1,3,0c1-0.1,1.7-0.2,2.4-0.4c0.6-0.2,1.2-0.5,1.7-0.9c0.5-0.3,0.9-0.8,1.2-1.3
				c0.4-0.5,0.6-1.2,0.9-1.9c0.1-0.4,0.2-0.8,0.3-1.4c0.1-1.1,0.1-2.3-0.2-3.5c-0.4-2-1.2-4-2.4-6c-0.9-1.5-2.1-3-3.6-4.4
				c0.1,0.9,0.2,1.8,0,2.7c-0.2,1.2-0.6,2.3-1.3,3.2c-0.6,0.8-1.3,1.5-2.4,2.3c-0.1,0.1-0.2,0.1-0.4,0.1c-0.1,0-0.3-0.2-0.4-0.3
				c-0.4-0.5-0.7-1.1-0.9-1.8C8.1,8.6,8,8.4,8,8.2z"/>
		</g>
	</g>
	<g>
		<g>
			<path d="M12,21.4c-0.1,0-0.1,0-0.2,0c-0.1,0-0.2-0.1-0.3-0.2l-3.2-3.7c0,0-0.9-0.9-0.9-2.1c0-0.7,0.3-1.3,0.8-1.9
				c0.5-0.5,1.1-0.8,1.7-0.8c0.9,0,1.6,0.5,2.1,0.9c0.4-0.4,1.2-0.9,2.1-0.9c0.6,0,1.2,0.3,1.7,0.8c0.6,0.6,0.8,1.2,0.8,1.9
				c0,1.2-0.9,2.1-1,2.1l-3.2,3.7c-0.1,0.1-0.1,0.2-0.2,0.2c0,0,0,0-0.1,0C12.1,21.3,12,21.4,12,21.4z M9.9,13.7
				c-0.4,0-0.7,0.2-1,0.5c-1.2,1.2,0,2.5,0.1,2.6l3,3.3l2.9-3.3c0.2-0.2,1.4-1.4,0.1-2.7c-0.3-0.3-0.6-0.5-1-0.5
				c-0.6,0-1.3,0.5-1.7,0.9c-0.2,0.2-0.5,0.2-0.7,0C11.2,14.1,10.6,13.7,9.9,13.7z"/>
		</g>
	</g>
	<g>
		<path d="M12,23.4c-0.3,0-0.5-0.2-0.5-0.5v-2c0-0.3,0.2-0.5,0.5-0.5s0.5,0.2,0.5,0.5v2C12.5,23.1,12.3,23.4,12,23.4z"/>
	</g>
	<g>
		<path d="M8.1,12.3c-0.1,0-0.2,0-0.3-0.1c-0.2-0.2-0.2-0.5,0-0.7c0.1-0.1,1.3-1.4,2-1.8c0.2-0.1,0.5-0.1,0.7,0.2s0.1,0.5-0.2,0.7
			c-0.5,0.3-1.4,1.3-1.8,1.6C8.4,12.3,8.2,12.3,8.1,12.3z"/>
	</g>
</g>
</svg>
